<?xml version="1.0" encoding="UTF-8"?>
<svg version="1.1" xmlns="http://www.w3.org/2000/svg" width="32" height="32">
<path d="M0 0 C10.56 0 21.12 0 32 0 C32 10.56 32 21.12 32 32 C21.44 32 10.88 32 0 32 C0 21.44 0 10.88 0 0 Z " fill="#164A6E" transform="translate(0,0)"/>
<path d="M0 0 C0.99 0 1.98 0 3 0 C3 1.32 3 2.64 3 4 C4.98 4 6.96 4 9 4 C9 2.68 9 1.36 9 0 C9.99 0 10.98 0 12 0 C11.67 1.65 11.34 3.3 11 5 C8.69 5.66 6.38 6.32 4 7 C9.01535052 6.67039784 9.01535052 6.67039784 13 4 C16.5 3.75 16.5 3.75 20 4 C20.66 4.66 21.32 5.32 22 6 C19 7 19 7 16.125 7.375 C12.96298893 7.8215811 12.96298893 7.8215811 10.4375 9.5625 C7.69090093 11.1822892 6.13076895 11.26835162 3 11 C3 12.32 3 13.64 3 15 C2.01 15 1.02 15 0 15 C0 10.05 0 5.1 0 0 Z " fill="#EDF2F2" transform="translate(5,6)"/>
<path d="M0 0 C1.32 0 2.64 0 4 0 C4.08096803 1.45742463 4.13917774 2.91612807 4.1875 4.375 C4.22230469 5.18710937 4.25710937 5.99921875 4.29296875 6.8359375 C4.19628906 7.55007812 4.09960938 8.26421875 4 9 C0.3558226 11.4294516 -1.71241272 11.16179575 -6 11 C-6.33 10.01 -6.66 9.02 -7 8 C-4.69 8 -2.38 8 0 8 C0.33 7.34 0.66 6.68 1 6 C-1.31 6 -3.62 6 -6 6 C-6.66 4.68 -7.32 3.36 -8 2 C-4.61976483 2 -2.16531063 2.87455622 1 4 C1 3.34 1 2.68 1 2 C0.34 1.67 -0.32 1.34 -1 1 C-0.67 0.67 -0.34 0.34 0 0 Z " fill="#F2F5F5" transform="translate(23,15)"/>
<path d="M0 0 C0.33 0.66 0.66 1.32 1 2 C-0.32 2.33 -1.64 2.66 -3 3 C-2.67 3.99 -2.34 4.98 -2 6 C-5.71599191 6.20086443 -6.77208445 6.1519437 -10 4 C-10.99 4 -11.98 4 -13 4 C-6.29173333 -1.47253333 -6.29173333 -1.47253333 0 0 Z " fill="#305F7D" transform="translate(26,13)"/>
</svg>
